<svg xmlns="http://www.w3.org/2000/svg" viewBox="0 0 400 400"><defs><style>.cls-1{fill:none;stroke:#000;stroke-miterlimit:10;stroke-width:0.75px;opacity:0.58;}.cls-2{fill:#fa0911;}.cls-3{fill:#002065;}.cls-4{fill:#037eff;}.cls-5{fill:#ffb200;}.cls-6{font-size:30px;}.cls-6,.cls-7{font-family:Consolas;}.cls-7{font-size:24px;fill:#231f20;}</style></defs><title>dss-logo-url</title><g id="Layer_1" data-name="Layer 1"><path class="cls-1" d="M50.85,156.91c-.54.35-.54.45-.54,6.52v6.17l.56.42c.56.44.71.44,8.08.44,6.41,0,7.6,0,8.06-.32s.54-.32.54-6.63c0-5.87,0-6.35-.44-6.64s-1.33-.34-8.11-.34C51.89,156.53,51.33,156.55,50.85,156.91Z"/><path class="cls-1" d="M72.22,156.85c-.34.25-.39,1.15-.39,6.62,0,5.88,0,6.35.44,6.65s1.31.34,8,.34c7.26,0,7.6,0,8.06-.4s.48-.65.48-6.63c0-5.79,0-6.27-.43-6.56s-1.34-.34-8.14-.34S72.54,156.57,72.22,156.85Z"/><path class="cls-1" d="M93.63,156.75c-.41.18-.44.71-.44,6.64,0,5.6,0,6.49.39,6.75s1.38.32,8,.32c7.31,0,7.65,0,8.11-.4s.48-.65.48-6.53c0-5.21-.05-6.19-.39-6.56s-.38-.44-8.05-.44A68.68,68.68,0,0,0,93.63,156.75Z"/><path class="cls-1" d="M114.84,156.73c-.22.17-.29,2-.29,6.76,0,6.23,0,6.53.46,6.73a76.19,76.19,0,0,0,8,.2c6.1,0,7.6-.06,8-.28s.46-.62.53-6.49c0-5.37,0-6.27-.31-6.69l-.37-.47H123C117.2,156.49,115.06,156.55,114.84,156.73Z"/><path class="cls-1" d="M136.13,156.87c-.27.25-.34,1.57-.34,6.66,0,6.07,0,6.37.46,6.65s1.89.28,8,.28a76.19,76.19,0,0,0,8-.2c.43-.2.46-.5.46-6.73,0-4.81-.07-6.58-.29-6.76s-2.36-.24-8.11-.24C137.29,156.53,136.42,156.57,136.13,156.87Z"/><path class="cls-1" d="M178.78,157c-.34.37-.39,1.35-.39,6.56,0,5.88,0,6.15.48,6.53s.8.4,8.11.4c6.63,0,7.69,0,8-.32s.39-1.15.39-6.75c0-6.17,0-6.46-.46-6.66a79.53,79.53,0,0,0-8.13-.2C179.16,156.53,179.14,156.53,178.78,157Z"/><path class="cls-1" d="M200.16,156.89c-.36.31-.41,1.07-.41,6.56,0,6,0,6.23.48,6.61s.8.4,8.08.4c7.07,0,7.65,0,8-.36s.42-1.09.42-6.67-.05-6.33-.39-6.58-1.41-.32-8.08-.32C201.11,156.53,200.52,156.55,200.16,156.89Z"/><path class="cls-1" d="M221.49,156.85c-.33.25-.38,1.15-.38,6.62,0,5.88,0,6.35.43,6.65s1.34.34,8.11.34c7.09,0,7.67,0,8-.36s.42-1.09.42-6.67,0-6.33-.39-6.58-1.41-.32-8.11-.32S221.81,156.57,221.49,156.85Z"/><path class="cls-1" d="M242.85,156.85c-.34.25-.38,1.15-.38,6.62,0,5.88,0,6.35.43,6.65s1.31.34,8,.34c6.41,0,7.6,0,8.06-.32s.54-.32.54-6.63c0-5.87,0-6.35-.44-6.64s-1.34-.34-8.13-.34S243.17,156.57,242.85,156.85Z"/><path class="cls-1" d="M264.26,156.75c-.41.18-.43.71-.43,6.64,0,5.6,0,6.49.38,6.75s1.39.32,8,.32c7.31,0,7.65,0,8.11-.4s.49-.65.49-6.53c0-5.21-.05-6.19-.39-6.56s-.39-.44-8.06-.44A69,69,0,0,0,264.26,156.75Z"/><path class="cls-1" d="M285.62,156.75c-.41.18-.43.71-.43,6.64,0,5.6,0,6.49.38,6.75s1.39.32,8,.32c7.31,0,7.65,0,8.11-.4s.49-.65.49-6.53c0-5.21-.05-6.19-.39-6.56s-.39-.44-8.06-.44A69,69,0,0,0,285.62,156.75Z"/><path class="cls-1" d="M306.84,156.77c-.22.18-.29,1.95-.29,6.76,0,6.23,0,6.53.46,6.73a76,76,0,0,0,8,.2c6.09,0,7.59-.06,8-.28s.46-.58.46-6.65c0-5.09-.07-6.41-.34-6.66s-1.16-.34-8.13-.34C309.19,156.53,307.05,156.59,306.84,156.77Z"/><path class="cls-1" d="M328.28,156.77c-.22.18-.29,1.95-.29,6.76,0,6.23,0,6.53.46,6.73s5.73.2,15.87.2c15.22,0,15.42,0,16.05-.42l.63-.4v-6.19c0-6.09,0-6.19-.53-6.54s-1.24-.38-16.22-.38C332.38,156.53,328.5,156.59,328.28,156.77Z"/><path class="cls-1" d="M50.85,173.92c-.54.3-.54.32-.54,6.55v6.25l.63.4c.64.42.88.42,12.09.42,9.52,0,11.53,0,11.94-.28s.47-.62.54-6.49c0-5.37,0-6.27-.32-6.69l-.36-.48H63.11C52.89,173.6,51.33,173.64,50.85,173.92Z"/><path class="cls-1" d="M80.13,173.88c-.22.18-.29,2-.29,6.77,0,6.23,0,6.53.46,6.73a79.53,79.53,0,0,0,8.13.2c7.63,0,7.65,0,8-.44s.39-1.35.39-6.65c0-5.73,0-6.21-.43-6.51s-1.34-.34-8.21-.34C82.46,173.64,80.35,173.7,80.13,173.88Z"/><path class="cls-1" d="M101.42,174c-.27.26-.34,1.58-.34,6.67,0,6.07,0,6.37.46,6.65s1.89.28,8.08.28c7.29,0,7.63,0,8.09-.4s.48-.66.48-6.53c0-5.21,0-6.19-.39-6.57s-.39-.44-8.2-.44C102.58,173.64,101.71,173.68,101.42,174Z"/><path class="cls-1" d="M122.71,174c-.34.38-.39,1.36-.39,6.57,0,5.87,0,6.15.48,6.53s.8.4,8.09.4c6.19,0,7.69-.06,8.08-.28s.46-.62.53-6.49c.05-5.37,0-6.27-.31-6.69l-.37-.48h-7.89C123.09,173.6,123.07,173.6,122.71,174Z"/><path class="cls-1" d="M165.43,174c-.34.26-.39,1.16-.39,6.63,0,5.87,0,6.35.43,6.65s1.34.34,8.14.34c6.65,0,7.71,0,8-.32s.39-1.16.39-6.73c0-4.72-.07-6.47-.29-6.65s-2.36-.24-8.11-.24C166.83,173.64,165.74,173.68,165.43,174Z"/><path class="cls-1" d="M208,174a43.15,43.15,0,0,0-.24,6.65c0,5.79,0,6.27.43,6.57s1.34.34,8.11.34c7.09,0,7.67,0,8-.36s.42-1.1.42-6.67-.05-6.33-.39-6.59-1.41-.32-8.23-.32C208.61,173.64,208.24,173.66,208,174Z"/><path class="cls-1" d="M250.77,173.88c-.22.18-.29,2-.29,6.77,0,6.23,0,6.53.46,6.73a79.22,79.22,0,0,0,8.13.2c7.62,0,7.64,0,8-.44s.39-1.35.39-6.65c0-5.73,0-6.21-.44-6.51s-1.34-.34-8.2-.34C253.1,173.64,251,173.7,250.77,173.88Z"/><path class="cls-1" d="M272,174.08c-.34.42-.37,1.32-.32,6.69.07,5.87.1,6.21.54,6.49s1.89.28,8.08.28c7.28,0,7.62,0,8.08-.4s.49-.66.49-6.53c0-5.21-.05-6.19-.39-6.57s-.39-.44-8.23-.44h-7.89Z"/><path class="cls-1" d="M293.34,174.08c-.34.38-.39,1.36-.39,6.57,0,5.87,0,6.15.49,6.53s.8.4,8.08.4c6.19,0,7.7-.06,8.08-.28s.46-.58.46-6.65c0-5.09-.07-6.41-.34-6.67s-1.16-.34-8.17-.34C293.73,173.64,293.71,173.64,293.34,174.08Z"/><path class="cls-1" d="M314.7,174.08c-.34.38-.39,1.36-.39,6.57,0,5.87,0,6.15.49,6.53s.8.4,8,.4a76.65,76.65,0,0,0,8-.2c.44-.2.46-.5.46-6.73,0-4.82-.07-6.59-.29-6.77s-2.35-.24-8.11-.24C315.09,173.64,315.06,173.64,314.7,174.08Z"/><path class="cls-1" d="M336.12,174.08c-.34.42-.36,1.32-.31,6.69.07,5.87.09,6.21.53,6.49s2.43.28,11.94.28c11.22,0,11.46,0,12.09-.42l.63-.4v-6.25c0-6.23,0-6.25-.53-6.55s-2-.32-12.26-.32H336.48Z"/><path class="cls-1" d="M50.85,191.08c-.54.3-.54.32-.54,6.55v6.25l.63.4c.64.41.85.41,15.3.41s14.66,0,15.14-.39.49-.66.49-6.63c0-5.79,0-6.27-.44-6.57s-1.82-.34-15.24-.34C53.18,190.76,51.33,190.8,50.85,191.08Z"/><path class="cls-1" d="M107.8,191c-.22.18-.29,1.93-.29,6.65,0,5.57,0,6.47.39,6.73s1.38.31,8,.31c7.31,0,7.65,0,8.11-.39s.48-.66.48-6.53c0-5.22,0-6.19-.39-6.57s-.38-.44-8.2-.44C110.16,190.76,108,190.82,107.8,191Z"/><path class="cls-1" d="M129.16,191c-.22.18-.29,1.95-.29,6.77,0,6.23,0,6.53.46,6.73a78,78,0,0,0,8,.19c6.1,0,7.6-.06,8-.27s.46-.58.46-6.65c0-5.1-.07-6.41-.34-6.67s-1.16-.34-8.13-.34C131.52,190.76,129.38,190.82,129.16,191Z"/><path class="cls-1" d="M214.46,191.08c-.34.26-.39,1.15-.39,6.65,0,6.33,0,6.35.53,6.65s1.65.31,8,.31,7.5,0,8-.31.54-.32.54-6.65c0-5.5-.05-6.39-.39-6.65s-1.41-.32-8.11-.32S214.77,190.8,214.46,191.08Z"/><path class="cls-1" d="M235.82,191.08c-.34.26-.39,1.15-.39,6.65,0,6.33,0,6.35.53,6.65s1.65.31,8,.31,7.5,0,8-.31.54-.32.54-6.65c0-5.5,0-6.39-.39-6.65s-1.41-.32-8.11-.32S236.13,190.8,235.82,191.08Z"/><path class="cls-1" d="M278.44,191c-.22.18-.29,1.93-.29,6.63,0,6,0,6.43.43,6.73s1.31.33,8,.33c7.26,0,7.6,0,8.06-.39s.49-.66.49-6.53c0-5.22-.05-6.19-.39-6.57s-.39-.44-8.21-.44C280.79,190.76,278.66,190.82,278.44,191Z"/><path class="cls-1" d="M299.8,191c-.22.18-.29,1.95-.29,6.77,0,6.23,0,6.53.46,6.73a77.89,77.89,0,0,0,8,.19c6.09,0,7.6-.06,8-.27s.47-.58.47-6.65c0-5.1-.08-6.41-.34-6.67s-1.17-.34-8.14-.34C302.15,190.76,300,190.82,299.8,191Z"/><path class="cls-1" d="M321.17,191.1c-.27.26-.34,1.53-.34,6.31,0,3.3.07,6.23.17,6.51a1.14,1.14,0,0,0,.73.66c.31,0,9,.11,19.27.11,18.57,0,18.74,0,19.37-.41l.63-.4v-6.25c0-6.23,0-6.25-.53-6.55s-2.77-.32-19.76-.32C323.14,190.76,321.46,190.78,321.17,191.1Z"/><path class="cls-1" d="M50.64,208.4c-.36.31-.41,1.07-.41,6.54,0,5.74,0,6.19.44,6.49s2,.34,18.32.34H86.86l.36-.44c.58-.65.58-12.2,0-12.85l-.36-.44H68.94C51.9,208,51,208.06,50.64,208.4Z"/><path class="cls-1" d="M92.27,208.32c-.41.34-.41,12.91,0,13.25.22.18,2.35.24,8.11.24,7,0,7.84,0,8.13-.34s.34-1.55.34-6.52-.08-6.27-.34-6.53-1.17-.34-8.13-.34C94.62,208.08,92.49,208.14,92.27,208.32Z"/><path class="cls-1" d="M113.56,208.42c-.27.26-.34,1.55-.34,6.53s.07,6.26.34,6.52,1.16.34,8.13.34c5.75,0,7.89-.06,8.1-.24.42-.34.42-12.91,0-13.25-.21-.18-2.35-.24-8.1-.24C114.72,208.08,113.85,208.12,113.56,208.42Z"/><path class="cls-1" d="M134.7,208.55a43.62,43.62,0,0,0-.25,6.35,43.52,43.52,0,0,0,.25,6.35l.24.52h8c5.87,0,8-.06,8.25-.24.42-.34.42-12.92,0-13.25-.21-.18-2.38-.24-8.25-.24h-8Z"/><path class="cls-1" d="M177.42,208.46a40.54,40.54,0,0,0-.25,6.49,40.46,40.46,0,0,0,.25,6.48c.24.36.6.38,8.2.38,5.87,0,8-.06,8.25-.24.42-.34.42-12.91,0-13.25-.22-.18-2.38-.24-8.25-.24C178,208.08,177.66,208.1,177.42,208.46Z"/><path class="cls-1" d="M157.39,157c-.34.42-.36,1.32-.31,6.69.07,5.87.09,6.21.53,6.49s1.89.28,8,.28a76.19,76.19,0,0,0,8-.2c.43-.2.46-.5.46-6.73,0-4.81-.07-6.59-.29-6.76s-2.36-.24-8.13-.24h-7.84Z"/><path class="cls-1" d="M144.09,174c-.36.32-.41,1.08-.41,6.53,0,5.26,0,6.23.39,6.61s.38.44,8,.44a79.53,79.53,0,0,0,8.13-.2c.43-.2.46-.5.46-6.73,0-4.82-.07-6.59-.29-6.77s-2.36-.24-8.09-.24C145,173.64,144.45,173.66,144.09,174Z"/><path class="cls-1" d="M186.79,174c-.34.26-.39,1.16-.39,6.63,0,5.87,0,6.35.43,6.65s1.34.34,8.11.34c7.09,0,7.67,0,8-.36s.41-1.08.41-6.59a42,42,0,0,0-.25-6.61c-.24-.36-.6-.38-8.13-.38C188.19,173.64,187.1,173.68,186.79,174Z"/><path class="cls-1" d="M150.45,191.1c-.27.26-.34,1.57-.34,6.67,0,6.07,0,6.37.46,6.65s1.89.27,8,.27a78,78,0,0,0,8-.19c.43-.2.46-.5.46-6.73,0-4.82-.07-6.59-.29-6.77s-2.36-.24-8.11-.24C151.61,190.76,150.74,190.8,150.45,191.1Z"/><path class="cls-1" d="M171.74,191.2c-.34.38-.39,1.35-.39,6.57,0,5.87,0,6.15.48,6.53s.8.39,8.09.39c7.06,0,7.64,0,8-.35s.41-1.1.41-6.73c0-4.7-.07-6.43-.29-6.61s-2.36-.24-8.11-.24C172.12,190.76,172.1,190.76,171.74,191.2Z"/><path class="cls-1" d="M156.06,208.46a40.54,40.54,0,0,0-.25,6.49,40.46,40.46,0,0,0,.25,6.48c.24.36.6.38,8.2.38,5.87,0,8-.06,8.25-.24.42-.34.42-12.91,0-13.25-.22-.18-2.38-.24-8.25-.24C156.66,208.08,156.3,208.1,156.06,208.46Z"/><path class="cls-1" d="M198.78,208.46a40.54,40.54,0,0,0-.25,6.49,40.46,40.46,0,0,0,.25,6.48c.24.36.6.38,8.25.38s8,0,8.25-.38c.34-.53.34-12.44,0-13-.24-.36-.61-.38-8.25-.38S199,208.1,198.78,208.46Z"/><path class="cls-1" d="M220.18,208.32c-.21.18-.29,1.93-.29,6.63s.08,6.44.29,6.62,2.38.24,8.26.24c7.59,0,8,0,8.2-.38.34-.53.34-12.44,0-13-.24-.36-.61-.38-8.2-.38C222.56,208.08,220.4,208.14,220.18,208.32Z"/><path class="cls-1" d="M241.54,208.32c-.21.18-.29,1.93-.29,6.63s.08,6.44.29,6.62,2.38.24,8.26.24c7.59,0,8,0,8.2-.38.34-.53.34-12.44,0-13-.24-.36-.61-.38-8.2-.38C243.92,208.08,241.76,208.14,241.54,208.32Z"/><path class="cls-1" d="M262.9,208.32c-.21.18-.29,1.93-.29,6.63s.08,6.44.29,6.62,2.36.24,8.11.24c7.82,0,7.84,0,8.2-.44s.39-1.33.39-6.42-.05-6.06-.39-6.43-.38-.44-8.2-.44C265.26,208.08,263.12,208.14,262.9,208.32Z"/><path class="cls-1" d="M284.26,208.32c-.22.18-.29,1.93-.29,6.63s.07,6.44.29,6.62,2.36.24,8.11.24c7,0,7.84,0,8.13-.34s.34-1.55.34-6.52-.07-6.27-.34-6.53-1.16-.34-8.13-.34C286.62,208.08,284.48,208.14,284.26,208.32Z"/><path class="cls-1" d="M305.55,208.42c-.27.26-.34,1.55-.34,6.53s.07,6.26.34,6.52,2.52.34,27.45.34c25.95,0,27.14,0,27.5-.36s.42-1.07.42-6.54c0-5.74,0-6.19-.44-6.49s-2.67-.34-27.53-.34S305.84,208.1,305.55,208.42Z"/><path class="cls-1" d="M50.85,225.41c-.54.46-.54.58-.54,6.53V238l.56.42c.56.44.58.44,12.09.44,9.59,0,11.6,0,12-.28s.47-.58.47-6.69,0-6.41-.47-6.69-2.45-.27-12-.27H51.36Z"/><path class="cls-1" d="M80.28,225.22c-.41.17-.44.71-.44,6.74,0,6.27,0,6.57.46,6.77a79.53,79.53,0,0,0,8.13.2c7.63,0,7.65,0,8-.44s.39-1.35.39-6.57c0-5.87,0-6.15-.48-6.53s-.8-.39-8.06-.39A67.32,67.32,0,0,0,80.28,225.22Z"/><path class="cls-1" d="M101.64,225.22c-.41.17-.44.71-.44,6.74,0,6.27,0,6.57.46,6.77s4.52.2,12,.2c10.14,0,11.55,0,11.89-.32s.39-1.15.39-6.65,0-6.39-.39-6.64-1.75-.32-11.94-.32C106.23,225,101.9,225.08,101.64,225.22Z"/><path class="cls-1" d="M130.81,225.35c-.46.38-.48.66-.48,6.57s0,6.19.48,6.57.8.4,68.91.4h68.45l.36-.44c.34-.38.39-1.35.39-6.57,0-5.87,0-6.15-.48-6.53s-.8-.39-68.81-.39S131.3,225,130.81,225.35Z"/><path class="cls-1" d="M272.27,225.22c-.41.17-.43.71-.43,6.7,0,4.82.07,6.59.29,6.77s2.35.24,8.1.24c7,0,7.84,0,8.14-.34s.33-1.57.33-6.67c0-6.07,0-6.37-.46-6.64s-1.89-.28-8-.28A66.65,66.65,0,0,0,272.27,225.22Z"/><path class="cls-1" d="M293.54,225.28c-.44.27-.47.57-.47,6.64,0,5.1.08,6.41.34,6.67s1.17.34,8.14.34c5.75,0,7.88-.06,8.1-.24s.29-1.95.29-6.77c0-6.23,0-6.53-.46-6.72a76,76,0,0,0-8-.2C295.43,225,293.92,225.06,293.54,225.28Z"/><path class="cls-1" d="M314.89,225.28c-.43.27-.46.57-.46,6.68s0,6.41.46,6.69,2.46.28,12.07.28c10.22,0,11.62,0,12-.32s.39-1.15.39-6.63c0-5.87,0-6.35-.43-6.65s-1.61-.33-12-.33C317.32,225,315.31,225,314.89,225.28Z"/><path class="cls-1" d="M344.18,225.35c-.36.32-.41,1.1-.41,6.65,0,5.81,0,6.29.43,6.59s1.34.34,8.11.34c7.11,0,7.67,0,8.16-.38s.53-.46.53-6.53v-6.17l-.56-.42c-.56-.43-.7-.43-8.23-.43C345.13,225,344.54,225,344.18,225.35Z"/></g><g id="ialh"><path class="cls-2" d="M229.41,173.88c-.22.18-.29,1.93-.29,6.65,0,5.57,0,6.47.38,6.73s1.41.32,8.09.32c7.16,0,7.74,0,8.1-.36s.42-1.1.42-6.67-.05-6.33-.39-6.59-1.41-.32-8.21-.32C231.76,173.64,229.63,173.7,229.41,173.88Z"/><path class="cls-3" d="M86.44,191c-.21.18-.29,1.93-.29,6.63,0,6,0,6.43.44,6.73s1.31.33,8,.33c7.26,0,7.6,0,8.06-.39s.48-.66.48-6.53c0-5.22,0-6.19-.39-6.57s-.38-.44-8.2-.44C88.8,190.76,86.66,190.82,86.44,191Z"/><path class="cls-4" d="M257.08,191c-.22.18-.29,1.93-.29,6.65,0,6.41,0,6.43.53,6.73s1.65.31,8,.31c7.16,0,7.5,0,8-.39s.49-.66.49-6.63c0-5.79,0-6.27-.44-6.57s-1.33-.34-8.2-.34C259.41,190.76,257.3,190.82,257.08,191Z"/><path class="cls-5" d="M193.1,191.2c-.34.38-.39,1.35-.39,6.57,0,5.87,0,6.15.48,6.53s.8.39,8.09.39c7.06,0,7.64,0,8-.35s.41-1.1.41-6.73c0-4.7-.07-6.43-.29-6.61s-2.36-.24-8.11-.24C193.48,190.76,193.46,190.76,193.1,191.2Z"/></g><g id="text"><text class="cls-6" transform="translate(48.64 135.63)">data science studio</text><text class="cls-7" transform="translate(48.33 273.67)">http://dss-ialh.rbind.io</text></g></svg>